<svg width="35" height="35" viewBox="0 0 35 35" fill="none" xmlns="http://www.w3.org/2000/svg">
    <path d="M17.5005 10.9966V17.4998L21.565 21.5643" stroke="#201B10" stroke-width="2.43872" stroke-linecap="round" stroke-linejoin="round"/>
    <path d="M8.08167 27.979C13.4846 32.8531 21.6733 32.8925 27.0231 28.0825L27.6871 28.7466C21.9655 33.9289 13.1825 33.8775 7.4176 28.6421L8.08167 27.979ZM28.6432 7.4165C33.8783 13.1812 33.9284 21.9643 28.7477 27.686L28.0836 27.022C32.8935 21.6721 32.8546 13.4824 27.9801 8.07959L28.6432 7.4165ZM3.38635 16.1675C3.22396 18.1102 3.46079 20.0685 4.08655 21.9204C4.71211 23.7718 5.71134 25.4717 7.01819 26.9175L6.3551 27.5806C4.94586 26.0315 3.86877 24.2065 3.1969 22.2173C2.52526 20.2287 2.27469 18.1252 2.45569 16.0396L3.38635 16.1675ZM8.4342 8.70752L8.42932 9.646L7.34534 9.64111L7.9635 9.02295L8.27893 8.70654L8.4342 8.70752ZM7.31409 6.25244C13.0352 1.07079 21.8178 1.12192 27.5826 6.35596L26.9196 7.01904C21.5167 2.14575 13.3266 2.10602 7.97717 6.91553L7.31409 6.25244ZM5.49573 5.92139L4.56213 6.85498L4.55627 5.77393L5.49475 5.76807L5.49573 5.92139Z" stroke="#201B10" stroke-width="1.5"/>
</svg>
